<?xml version="1.0" standalone="no"?>
<!DOCTYPE svg PUBLIC "-//W3C//DTD SVG 20010904//EN"
 "http://www.w3.org/TR/2001/REC-SVG-20010904/DTD/svg10.dtd">
<svg version="1.0" xmlns="http://www.w3.org/2000/svg"
 width="126.000000pt" height="126.000000pt" viewBox="0 0 126.000000 126.000000"
 preserveAspectRatio="xMidYMid meet">
<metadata>
Created by potrace 1.16, written by Peter Selinger 2001-2019
</metadata>
<g transform="translate(0.000000,126.000000) scale(0.100000,-0.100000)"
fill="#000000" stroke="none">
<path d="M472 1246 c-118 -29 -250 -113 -333 -213 -49 -59 -113 -190 -128
-261 -16 -75 -13 -226 4 -301 50 -213 243 -406 456 -456 82 -19 236 -19 318 0
213 50 406 243 456 456 17 75 20 226 4 301 -15 71 -79 202 -128 261 -22 26
-62 66 -88 88 -59 49 -190 113 -261 128 -70 15 -234 13 -300 -3z m287 -71
c247 -59 431 -291 431 -545 0 -305 -255 -560 -560 -560 -305 0 -560 255 -560
560 0 304 251 556 555 559 39 0 99 -6 134 -14z"/>
<path d="M380 936 l0 -65 184 -3 185 -3 29 -28 c17 -16 32 -41 35 -57 9 -41
-10 -96 -40 -120 -24 -18 -39 -20 -209 -20 l-184 0 0 -180 0 -180 80 0 80 0 0
104 0 104 133 4 c118 4 137 7 182 30 60 31 77 49 104 108 15 32 21 66 21 120
0 91 -21 143 -76 188 -63 53 -113 62 -331 62 l-193 0 0 -64z"/>
<path d="M815 490 c-11 -5 -39 -9 -62 -9 -24 -1 -43 -6 -43 -12 0 -5 28 -50
63 -99 l62 -89 88 -1 c48 0 87 3 87 6 0 17 -147 213 -160 213 -8 0 -24 -4 -35
-9z"/>
</g>
</svg>
